<svg preserveAspectRatio="none" width="100%" height="100%" overflow="visible" style="display: block;" viewBox="0 0 116.465 28" fill="none" xmlns="http://www.w3.org/2000/svg">
<g id="amd-logo-1" opacity="0.3" clip-path="url(#clip0_0_122)">
<path id="Vector" d="M27.3663 26.1392H20.91L18.9348 21.335H8.17457L6.37508 26.1392H0.0250679L9.72638 1.87486H16.6765L27.3663 26.1392ZM13.2898 7.67292L9.76203 17.1007H17.1708L13.2898 7.67292ZM50.8193 1.87486H56.0406V26.1392H50.0424V10.983L43.5511 18.5959H42.6342L36.1433 10.983V26.1389H30.1452V1.87486H35.3664L43.0923 10.8759L50.8193 1.87486ZM71.2384 1.87486C80.0225 1.87486 84.5375 7.38866 84.5375 14.0417C84.5375 21.0147 80.1635 26.1392 70.5677 26.1392H60.6187V1.87486H71.2384ZM66.6164 21.692H70.5318C76.5646 21.692 78.364 17.5641 78.364 14.0057C78.364 9.84275 76.1411 6.32151 70.4612 6.32151H66.6163V21.692H66.6164ZM96.4705 7.62816L88.9076 -3.25918e-07H116.44V27.7664L108.877 20.1391V7.62816H96.4705ZM96.4617 9.1567L88.6752 17.0086V28H99.573L107.359 20.148H96.4617V9.1567Z" fill="var(--fill-0, #202430)"/>
</g>
<defs>
<clipPath id="clip0_0_122">
<rect width="116.465" height="28" fill="white"/>
</clipPath>
</defs>
</svg>
